# xmcd
#
# Track frame offsets: 
#        150
#        15949
#        31459
#        45579
#        63682
#        81116
#        95301
#        118412
#        131466
#        152932
#
# Disc length: 2153 seconds
#
# Revision: 0
# Processed by: cddbd v1.5.2PL0 Copyright (c) Steve Scherf et al.
# Submitted via: ExactAudioCopy v0.95b4
#
DISCID=7d08670a
DTITLE=Johnny Copeland - Make My Home Where I Hang My Hat
DYEAR=1982
DGENRE=Blues
TTITLE0=Natural Born Believer
TTITLE1=Make My Home Where I Hang My Hat
TTITLE2=Devil's Hand
TTITLE3=Cold Outside
TTITLE4=Love Utopia
TTITLE5=Boogie Woogie Nighthawk
TTITLE6=Honky Tonkin'
TTITLE7=Well Well Baby-La
TTITLE8=Old Man Blues
TTITLE9=Rock 'n' Roll Lilly
EXTD=
EXTT0=
EXTT1=
EXTT2=
EXTT3=
EXTT4=
EXTT5=
EXTT6=
EXTT7=
EXTT8=
EXTT9=
PLAYORDER=
